<?xml version="1.0" standalone="no"?>
<!DOCTYPE svg PUBLIC "-//W3C//DTD SVG 20010904//EN"
 "http://www.w3.org/TR/2001/REC-SVG-20010904/DTD/svg10.dtd">
<svg version="1.0" xmlns="http://www.w3.org/2000/svg"
 width="250.000000pt" height="100.000000pt" viewBox="0 0 250.000000 100.000000"
 preserveAspectRatio="xMidYMid meet">

<g transform="translate(0.000000,100.000000) scale(0.100000,-0.100000)"
fill="#000000" stroke="none">
<path d="M0 500 l0 -500 1250 0 1250 0 0 500 0 500 -1250 0 -1250 0 0 -500z
m493 292 c65 -29 131 -100 157 -170 30 -78 25 -196 -10 -265 -74 -146 -248
-211 -391 -145 -134 62 -209 208 -180 350 15 68 64 152 113 191 84 67 211 83
311 39z m1067 -262 c0 -171 -2 -200 -15 -200 -8 0 -15 7 -15 15 0 18 -1 18
-36 1 -31 -17 -57 -8 -74 24 -11 21 -14 219 -2 236 17 25 48 33 75 19 l27 -14
0 60 c0 52 2 59 20 59 19 0 20 -7 20 -200z m-647 147 c21 -24 19 -71 -4 -75
-11 -2 -19 8 -25 30 -10 36 -49 51 -65 26 -10 -15 -12 -248 -3 -272 9 -22 51
-20 64 3 16 31 13 101 -5 101 -8 0 -15 9 -15 20 0 17 7 20 40 20 l40 0 0 -100
c0 -85 -2 -100 -16 -100 -9 0 -18 9 -21 20 -5 20 -7 20 -24 4 -25 -23 -67 -21
-92 5 -20 20 -22 32 -22 160 0 121 2 142 19 159 32 36 97 36 129 -1z m212 -78
c10 -18 15 -59 15 -118 0 -80 -3 -93 -23 -117 -27 -31 -79 -36 -106 -9 -21 21
-28 208 -9 245 25 46 99 46 123 -1z m210 0 c10 -18 15 -59 15 -118 0 -80 -3
-93 -23 -117 -27 -31 -79 -36 -106 -9 -21 21 -28 208 -9 245 25 46 99 46 123
-1z m335 19 c0 -20 1 -20 18 -5 26 24 79 22 92 -2 5 -11 10 -78 10 -150 l0
-131 -25 0 -25 0 0 134 c0 140 -4 154 -42 134 -16 -8 -18 -25 -18 -138 l0
-130 -25 0 -25 0 0 155 c0 148 1 155 20 155 14 0 20 -7 20 -22z m317 -19 c13
-26 17 -87 7 -113 -4 -12 -20 -16 -55 -16 -47 0 -49 -1 -49 -27 0 -56 11 -74
39 -71 18 2 27 10 29 26 2 14 10 22 24 22 17 0 19 -4 13 -27 -9 -41 -28 -55
-70 -55 -59 0 -69 18 -73 128 -3 59 1 106 8 124 22 52 102 58 127 9z m189 -5
c8 -30 -1 -54 -20 -54 -9 0 -16 11 -18 28 -2 21 -8 27 -28 27 -39 0 -35 -26
15 -90 50 -64 60 -92 51 -129 -11 -45 -102 -54 -128 -13 -15 24 -9 57 11 57
13 0 21 -8 23 -22 2 -17 11 -24 31 -26 41 -5 35 29 -17 96 -54 69 -64 103 -42
136 28 43 111 36 122 -10z m180 0 c8 -30 -1 -54 -20 -54 -9 0 -16 11 -18 28
-2 21 -8 27 -28 27 -39 0 -35 -26 15 -90 50 -64 60 -92 51 -129 -11 -45 -102
-54 -128 -13 -15 24 -9 57 11 57 13 0 21 -8 23 -22 2 -17 11 -24 31 -26 41 -5
35 29 -17 96 -54 69 -64 103 -42 136 28 43 111 36 122 -10z"/>
<path d="M450 753 c-34 -6 -52 -31 -39 -54 5 -11 16 -19 24 -19 27 0 16 -18
-15 -25 -22 -5 -37 -1 -56 14 -62 49 -174 32 -233 -34 -52 -59 -55 -157 -6
-220 53 -70 141 -91 217 -52 37 19 58 23 100 20 60 -5 104 16 134 63 26 39 24
116 -4 154 -28 37 -27 38 3 32 17 -3 25 0 25 10 0 8 -11 27 -25 42 -14 15 -25
31 -25 35 0 4 -8 15 -18 24 -18 17 -33 18 -82 10z m70 -42 c15 -30 2 -53 -29
-49 -26 3 -38 26 -27 54 8 20 44 17 56 -5z m-180 -46 c17 -9 30 -20 30 -25 0
-13 -10 -12 -40 5 -58 33 -148 8 -186 -51 -28 -42 -24 -115 9 -158 45 -58 111
-69 200 -31 10 4 17 3 17 -4 0 -21 -71 -43 -121 -39 -198 19 -185 318 13 318
27 0 62 -7 78 -15z m-40 -24 c18 -5 26 -16 30 -36 4 -24 10 -30 30 -30 20 0
26 6 28 27 3 22 11 29 37 37 112 31 197 -93 132 -190 -44 -65 -158 -75 -165
-15 -2 16 4 36 13 46 38 42 -3 85 -69 73 -22 -5 -26 -11 -26 -39 0 -22 6 -37
15 -40 21 -9 19 -51 -4 -64 -28 -15 -87 -12 -121 5 -87 45 -74 190 20 222 40
13 45 14 80 4z"/>
<path d="M290 610 c-11 -7 -12 -14 -4 -27 18 -30 33 -27 31 6 -2 34 -5 35 -27
21z"/>
<path d="M402 590 c3 -35 13 -38 29 -9 9 17 8 23 -2 30 -24 15 -29 10 -27 -21z"/>
<path d="M260 521 c0 -16 7 -34 15 -41 9 -7 15 -20 13 -29 -3 -16 3 -21 22
-21 13 0 13 25 1 48 -6 9 -12 29 -16 45 -7 37 -35 36 -35 -2z"/>
<path d="M430 516 c0 -19 -4 -38 -10 -41 -16 -10 -12 -55 5 -55 9 0 15 9 15
24 0 13 7 37 15 52 20 39 19 54 -5 54 -16 0 -20 -7 -20 -34z"/>
<path d="M1456 578 c-3 -13 -6 -57 -6 -99 0 -86 16 -122 47 -103 15 9 19 27
21 95 4 107 -2 129 -32 129 -16 0 -26 -7 -30 -22z"/>
<path d="M1036 578 c-3 -13 -6 -54 -6 -93 0 -93 7 -115 35 -115 26 0 35 29 35
115 0 86 -9 115 -35 115 -15 0 -25 -8 -29 -22z"/>
<path d="M1246 578 c-3 -13 -6 -54 -6 -93 0 -93 7 -115 35 -115 26 0 35 29 35
115 0 86 -9 115 -35 115 -15 0 -25 -8 -29 -22z"/>
<path d="M1896 578 c-3 -13 -6 -33 -6 -45 0 -20 5 -23 35 -23 30 0 35 3 35 23
0 45 -12 67 -35 67 -15 0 -25 -8 -29 -22z"/>
</g>
</svg>
